<?xml version="1.0" encoding="UTF-8"?><svg xmlns="http://www.w3.org/2000/svg" xmlns:xlink="http://www.w3.org/1999/xlink" fill-opacity="1" color-rendering="auto" color-interpolation="auto" text-rendering="auto" stroke="black" stroke-linecap="square" width="567" stroke-miterlimit="10" shape-rendering="auto" stroke-opacity="1" fill="black" stroke-dasharray="none" font-weight="normal" stroke-width="1" height="467" font-family="'Dialog'" font-style="normal" stroke-linejoin="miter" font-size="12px" stroke-dashoffset="0" image-rendering="auto">
  <!--Generated by ySVG 2.5-->
  <defs id="genericDefs"/>
  <g>
    <defs id="defs1">
      <linearGradient x1="161.6008" gradientUnits="userSpaceOnUse" x2="282.3992" y1="289" y2="329" id="linearGradient1" spreadMethod="reflect">
        <stop stop-opacity="1" stop-color="aqua" offset="0%"/>
        <stop stop-opacity="1" stop-color="rgb(51,204,204)" offset="100%"/>
      </linearGradient>
      <linearGradient x1="306.7542" gradientUnits="userSpaceOnUse" x2="447" y1="289" y2="329" id="linearGradient2" spreadMethod="reflect">
        <stop stop-opacity="1" stop-color="aqua" offset="0%"/>
        <stop stop-opacity="1" stop-color="rgb(51,204,204)" offset="100%"/>
      </linearGradient>
      <linearGradient x1="14.3899" gradientUnits="userSpaceOnUse" x2="139.6101" y1="289" y2="329" id="linearGradient3" spreadMethod="reflect">
        <stop stop-opacity="1" stop-color="aqua" offset="0%"/>
        <stop stop-opacity="1" stop-color="rgb(51,204,204)" offset="100%"/>
      </linearGradient>
      <linearGradient x1="182" gradientUnits="userSpaceOnUse" x2="262" y1="219" y2="259" id="linearGradient4" spreadMethod="reflect">
        <stop stop-opacity="1" stop-color="aqua" offset="0%"/>
        <stop stop-opacity="1" stop-color="rgb(51,204,204)" offset="100%"/>
      </linearGradient>
      <linearGradient x1="32.8547" gradientUnits="userSpaceOnUse" x2="121.1453" y1="387" y2="427" id="linearGradient5" spreadMethod="reflect">
        <stop stop-opacity="1" stop-color="lime" offset="0%"/>
        <stop stop-opacity="1" stop-color="rgb(51,153,102)" offset="100%"/>
      </linearGradient>
      <linearGradient x1="37" gradientUnits="userSpaceOnUse" x2="121.1453" y1="457" y2="497" id="linearGradient6" spreadMethod="reflect">
        <stop stop-opacity="1" stop-color="lime" offset="0%"/>
        <stop stop-opacity="1" stop-color="rgb(51,153,102)" offset="100%"/>
      </linearGradient>
      <linearGradient x1="37" gradientUnits="userSpaceOnUse" x2="121.1453" y1="527" y2="567" id="linearGradient7" spreadMethod="reflect">
        <stop stop-opacity="1" stop-color="lime" offset="0%"/>
        <stop stop-opacity="1" stop-color="rgb(51,153,102)" offset="100%"/>
      </linearGradient>
      <linearGradient x1="447" gradientUnits="userSpaceOnUse" x2="527" y1="359" y2="399" id="linearGradient8" spreadMethod="reflect">
        <stop stop-opacity="1" stop-color="yellow" offset="0%"/>
        <stop stop-opacity="1" stop-color="rgb(255,204,0)" offset="100%"/>
      </linearGradient>
      <linearGradient x1="447" gradientUnits="userSpaceOnUse" x2="527" y1="426.04" y2="466.04" id="linearGradient9" spreadMethod="reflect">
        <stop stop-opacity="1" stop-color="yellow" offset="0%"/>
        <stop stop-opacity="1" stop-color="rgb(255,204,0)" offset="100%"/>
      </linearGradient>
      <linearGradient x1="447" gradientUnits="userSpaceOnUse" x2="527" y1="493.08" y2="533.08" id="linearGradient10" spreadMethod="reflect">
        <stop stop-opacity="1" stop-color="rgb(255,102,0)" offset="0%"/>
        <stop stop-opacity="1" stop-color="red" offset="100%"/>
      </linearGradient>
      <linearGradient x1="17" gradientUnits="userSpaceOnUse" x2="97" y1="154.08" y2="194.08" id="linearGradient11" spreadMethod="reflect">
        <stop stop-opacity="1" stop-color="rgb(204,153,255)" offset="0%"/>
        <stop stop-opacity="1" stop-color="rgb(153,51,102)" offset="100%"/>
      </linearGradient>
      <linearGradient x1="182" gradientUnits="userSpaceOnUse" x2="262" y1="154.08" y2="194.08" id="linearGradient12" spreadMethod="reflect">
        <stop stop-opacity="1" stop-color="rgb(204,153,255)" offset="0%"/>
        <stop stop-opacity="1" stop-color="rgb(153,51,102)" offset="100%"/>
      </linearGradient>
      <linearGradient x1="347" gradientUnits="userSpaceOnUse" x2="427" y1="154.08" y2="194.08" id="linearGradient13" spreadMethod="reflect">
        <stop stop-opacity="1" stop-color="rgb(204,153,255)" offset="0%"/>
        <stop stop-opacity="1" stop-color="rgb(153,51,102)" offset="100%"/>
      </linearGradient>
      <clipPath clipPathUnits="userSpaceOnUse" id="clipPath1">
        <path d="M0 0 L567 0 L567 467 L0 467 L0 0 Z"/>
      </clipPath>
      <clipPath clipPathUnits="userSpaceOnUse" id="clipPath2">
        <path d="M-5 130 L562 130 L562 597 L-5 597 L-5 130 Z"/>
      </clipPath>
    </defs>
    <g fill="white" text-rendering="geometricPrecision" shape-rendering="geometricPrecision" transform="translate(5,-130)" stroke="white">
      <rect x="-5" width="567" height="467" y="130" clip-path="url(#clipPath2)" stroke="none"/>
    </g>
    <g fill="url(#linearGradient1)" text-rendering="geometricPrecision" shape-rendering="geometricPrecision" transform="matrix(1,0,0,1,5,-130)" stroke="url(#linearGradient1)">
      <path d="M161.6008 297 C165.2247 289 278.7753 289 282.3992 297 L282.3992 321 C278.7753 329 165.2247 329 161.6008 321 Z" stroke="none" clip-path="url(#clipPath2)"/>
    </g>
    <g text-rendering="geometricPrecision" stroke-miterlimit="1.45" shape-rendering="geometricPrecision" transform="matrix(1,0,0,1,5,-130)" stroke-linecap="butt">
      <path fill="none" d="M161.6008 297 C165.2247 289 278.7753 289 282.3992 297 L282.3992 321 C278.7753 329 165.2247 329 161.6008 321 Z" clip-path="url(#clipPath2)"/>
      <path fill="none" d="M282.3992 297 C278.7753 305 165.2247 305 161.6008 297" clip-path="url(#clipPath2)"/>
      <text x="185.9531" y="313.1543" clip-path="url(#clipPath2)" font-family="sans-serif" stroke="none" font-weight="bold" xml:space="preserve">Zookeeper</text>
    </g>
    <g fill="url(#linearGradient2)" text-rendering="geometricPrecision" shape-rendering="geometricPrecision" transform="matrix(1,0,0,1,5,-130)" stroke="url(#linearGradient2)">
      <path d="M311.7542 289 L442 289 Q452 309 442 329 L311.7542 329 Q301.7542 309 311.7542 289 Z" stroke="none" clip-path="url(#clipPath2)"/>
    </g>
    <g text-rendering="geometricPrecision" stroke-miterlimit="1.45" shape-rendering="geometricPrecision" transform="matrix(1,0,0,1,5,-130)" stroke-linecap="butt">
      <path fill="none" d="M311.7542 289 L442 289 Q452 309 442 329 L311.7542 329 Q301.7542 309 311.7542 289 Z" clip-path="url(#clipPath2)"/>
      <path fill="none" d="M442 289 Q432 309 442 329" clip-path="url(#clipPath2)"/>
      <text x="341.5334" y="313.1543" clip-path="url(#clipPath2)" font-family="sans-serif" stroke="none" font-weight="bold" xml:space="preserve">Rabbit MQ</text>
    </g>
    <g fill="url(#linearGradient3)" text-rendering="geometricPrecision" shape-rendering="geometricPrecision" transform="matrix(1,0,0,1,5,-130)" stroke="url(#linearGradient3)">
      <path d="M14.3899 297 C18.1465 289 135.8535 289 139.6101 297 L139.6101 321 C135.8535 329 18.1465 329 14.3899 321 Z" stroke="none" clip-path="url(#clipPath2)"/>
    </g>
    <g text-rendering="geometricPrecision" stroke-miterlimit="1.45" shape-rendering="geometricPrecision" transform="matrix(1,0,0,1,5,-130)" stroke-linecap="butt">
      <path fill="none" d="M14.3899 297 C18.1465 289 135.8535 289 139.6101 297 L139.6101 321 C135.8535 329 18.1465 329 14.3899 321 Z" clip-path="url(#clipPath2)"/>
      <path fill="none" d="M139.6101 297 C135.8535 305 18.1465 305 14.3899 297" clip-path="url(#clipPath2)"/>
      <text x="41.7822" y="313.1543" clip-path="url(#clipPath2)" font-family="sans-serif" stroke="none" font-weight="bold" xml:space="preserve">Cassandra</text>
    </g>
    <g fill="url(#linearGradient4)" text-rendering="geometricPrecision" shape-rendering="geometricPrecision" transform="matrix(1,0,0,1,5,-130)" stroke="url(#linearGradient4)">
      <path d="M182 219 L262 219 L262 259 L182 259 Z" stroke="none" clip-path="url(#clipPath2)"/>
    </g>
    <g text-rendering="geometricPrecision" stroke-miterlimit="1.45" shape-rendering="geometricPrecision" transform="matrix(1,0,0,1,5,-130)" stroke-linecap="butt">
      <path fill="none" d="M182 219 L262 219 L262 259 L182 259 Z" clip-path="url(#clipPath2)"/>
      <text x="188.4375" y="243.1543" clip-path="url(#clipPath2)" font-family="sans-serif" stroke="none" font-weight="bold" xml:space="preserve">APIServer</text>
    </g>
    <g fill="url(#linearGradient5)" text-rendering="geometricPrecision" shape-rendering="geometricPrecision" transform="matrix(1,0,0,1,5,-130)" stroke="url(#linearGradient5)">
      <path d="M32.8547 387 L121.1453 387 L121.1453 427 L32.8547 427 Z" stroke="none" clip-path="url(#clipPath2)"/>
    </g>
    <g text-rendering="geometricPrecision" stroke-miterlimit="1.45" shape-rendering="geometricPrecision" transform="matrix(1,0,0,1,5,-130)" stroke-linecap="butt">
      <path fill="none" d="M32.8547 387 L121.1453 387 L121.1453 427 L32.8547 427 Z" clip-path="url(#clipPath2)"/>
      <text x="50.4805" y="404.1699" clip-path="url(#clipPath2)" font-family="sans-serif" stroke="none" font-weight="bold" xml:space="preserve">Schema</text>
      <text x="35.085" y="418.1387" clip-path="url(#clipPath2)" font-family="sans-serif" stroke="none" font-weight="bold" xml:space="preserve">Transformer</text>
    </g>
    <g fill="url(#linearGradient6)" text-rendering="geometricPrecision" shape-rendering="geometricPrecision" transform="matrix(1,0,0,1,5,-130)" stroke="url(#linearGradient6)">
      <path d="M37 457 L121.1453 457 L121.1453 497 L37 497 Z" stroke="none" clip-path="url(#clipPath2)"/>
    </g>
    <g text-rendering="geometricPrecision" stroke-miterlimit="1.45" shape-rendering="geometricPrecision" transform="matrix(1,0,0,1,5,-130)" stroke-linecap="butt">
      <path fill="none" d="M37 457 L121.1453 457 L121.1453 497 L37 497 Z" clip-path="url(#clipPath2)"/>
      <text x="56.4291" y="474.1699" clip-path="url(#clipPath2)" font-family="sans-serif" stroke="none" font-weight="bold" xml:space="preserve">Device</text>
      <text x="49.4096" y="488.1387" clip-path="url(#clipPath2)" font-family="sans-serif" stroke="none" font-weight="bold" xml:space="preserve">Manager</text>
    </g>
    <g fill="url(#linearGradient7)" text-rendering="geometricPrecision" shape-rendering="geometricPrecision" transform="matrix(1,0,0,1,5,-130)" stroke="url(#linearGradient7)">
      <path d="M37 527 L121.1453 527 L121.1453 567 L37 567 Z" stroke="none" clip-path="url(#clipPath2)"/>
    </g>
    <g text-rendering="geometricPrecision" stroke-miterlimit="1.45" shape-rendering="geometricPrecision" transform="matrix(1,0,0,1,5,-130)" stroke-linecap="butt">
      <path fill="none" d="M37 527 L121.1453 527 L121.1453 567 L37 567 Z" clip-path="url(#clipPath2)"/>
      <text x="54.1293" y="544.1699" clip-path="url(#clipPath2)" font-family="sans-serif" stroke="none" font-weight="bold" xml:space="preserve">Service</text>
      <text x="52.7026" y="558.1387" clip-path="url(#clipPath2)" font-family="sans-serif" stroke="none" font-weight="bold" xml:space="preserve">Monitor</text>
    </g>
    <g fill="url(#linearGradient8)" text-rendering="geometricPrecision" shape-rendering="geometricPrecision" transform="matrix(1,0,0,1,5,-130)" stroke="url(#linearGradient8)">
      <path d="M447 359 L527 359 L527 399 L447 399 Z" stroke="none" clip-path="url(#clipPath2)"/>
    </g>
    <g text-rendering="geometricPrecision" stroke-miterlimit="1.45" shape-rendering="geometricPrecision" transform="matrix(1,0,0,1,5,-130)" stroke-linecap="butt">
      <path fill="none" d="M447 359 L527 359 L527 399 L447 399 Z" clip-path="url(#clipPath2)"/>
      <text x="456.7861" y="383.1543" clip-path="url(#clipPath2)" font-family="sans-serif" stroke="none" font-weight="bold" xml:space="preserve">Collector</text>
    </g>
    <g fill="url(#linearGradient9)" text-rendering="geometricPrecision" shape-rendering="geometricPrecision" transform="matrix(1,0,0,1,5,-130)" stroke="url(#linearGradient9)">
      <path d="M447 426.04 L527 426.04 L527 466.04 L447 466.04 Z" stroke="none" clip-path="url(#clipPath2)"/>
    </g>
    <g text-rendering="geometricPrecision" stroke-miterlimit="1.45" shape-rendering="geometricPrecision" transform="matrix(1,0,0,1,5,-130)" stroke-linecap="butt">
      <path fill="none" d="M447 426.04 L527 426.04 L527 466.04 L447 466.04 Z" clip-path="url(#clipPath2)"/>
      <text x="456.0156" y="450.1943" clip-path="url(#clipPath2)" font-family="sans-serif" stroke="none" font-weight="bold" xml:space="preserve">Analytics</text>
    </g>
    <g fill="url(#linearGradient10)" text-rendering="geometricPrecision" shape-rendering="geometricPrecision" transform="matrix(1,0,0,1,5,-130)" stroke="url(#linearGradient10)">
      <path d="M447 493.08 L527 493.08 L527 533.08 L447 533.08 Z" stroke="none" clip-path="url(#clipPath2)"/>
    </g>
    <g text-rendering="geometricPrecision" stroke-miterlimit="1.45" shape-rendering="geometricPrecision" transform="matrix(1,0,0,1,5,-130)" stroke-linecap="butt">
      <path fill="none" d="M447 493.08 L527 493.08 L527 533.08 L447 533.08 Z" clip-path="url(#clipPath2)"/>
      <text x="462.1973" y="517.2343" clip-path="url(#clipPath2)" font-family="sans-serif" stroke="none" font-weight="bold" xml:space="preserve">Control</text>
    </g>
    <g fill="url(#linearGradient11)" text-rendering="geometricPrecision" shape-rendering="geometricPrecision" transform="matrix(1,0,0,1,5,-130)" stroke="url(#linearGradient11)">
      <path d="M17 154.08 L97 154.08 L97 194.08 L17 194.08 Z" stroke="none" clip-path="url(#clipPath2)"/>
    </g>
    <g text-rendering="geometricPrecision" stroke-miterlimit="1.45" shape-rendering="geometricPrecision" transform="matrix(1,0,0,1,5,-130)" stroke-linecap="butt">
      <path fill="none" d="M17 154.08 L97 154.08 L97 194.08 L17 194.08 Z" clip-path="url(#clipPath2)"/>
      <text x="44.6045" y="171.2499" clip-path="url(#clipPath2)" font-family="sans-serif" stroke="none" font-weight="bold" xml:space="preserve">K8s</text>
      <text x="27.3369" y="185.2187" clip-path="url(#clipPath2)" font-family="sans-serif" stroke="none" font-weight="bold" xml:space="preserve">Manager</text>
    </g>
    <g fill="url(#linearGradient12)" text-rendering="geometricPrecision" shape-rendering="geometricPrecision" transform="matrix(1,0,0,1,5,-130)" stroke="url(#linearGradient12)">
      <path d="M182 154.08 L262 154.08 L262 194.08 L182 194.08 Z" stroke="none" clip-path="url(#clipPath2)"/>
    </g>
    <g text-rendering="geometricPrecision" stroke-miterlimit="1.45" shape-rendering="geometricPrecision" transform="matrix(1,0,0,1,5,-130)" stroke-linecap="butt">
      <path fill="none" d="M182 154.08 L262 154.08 L262 194.08 L182 194.08 Z" clip-path="url(#clipPath2)"/>
      <text x="194.417" y="171.2499" clip-path="url(#clipPath2)" font-family="sans-serif" stroke="none" font-weight="bold" xml:space="preserve">Neutron</text>
      <text x="200.6514" y="185.2187" clip-path="url(#clipPath2)" font-family="sans-serif" stroke="none" font-weight="bold" xml:space="preserve">Plugin</text>
    </g>
    <g fill="url(#linearGradient13)" text-rendering="geometricPrecision" shape-rendering="geometricPrecision" transform="matrix(1,0,0,1,5,-130)" stroke="url(#linearGradient13)">
      <path d="M347 154.08 L427 154.08 L427 194.08 L347 194.08 Z" stroke="none" clip-path="url(#clipPath2)"/>
    </g>
    <g text-rendering="geometricPrecision" stroke-miterlimit="1.45" shape-rendering="geometricPrecision" transform="matrix(1,0,0,1,5,-130)" stroke-linecap="butt">
      <path fill="none" d="M347 154.08 L427 154.08 L427 194.08 L347 194.08 Z" clip-path="url(#clipPath2)"/>
      <text x="364.9131" y="178.2343" clip-path="url(#clipPath2)" font-family="sans-serif" stroke="none" font-weight="bold" xml:space="preserve">WebUI</text>
    </g>
    <g text-rendering="geometricPrecision" stroke-miterlimit="1.45" shape-rendering="geometricPrecision" transform="matrix(1,0,0,1,5,-130)" stroke-linecap="butt">
      <path fill="none" d="M261.9988 239 L377 239 L376.9263 281.0049" clip-path="url(#clipPath2)"/>
    </g>
    <g text-rendering="geometricPrecision" stroke-miterlimit="1.45" shape-rendering="geometricPrecision" transform="matrix(1,0,0,1,5,-130)" stroke-linecap="butt">
      <path d="M376.9122 289.0049 L381.9333 277.0137 L376.928 280.0049 L371.9333 276.9961 Z" stroke="none" clip-path="url(#clipPath2)"/>
      <path fill="none" d="M222 266.9951 L222 282.9807" clip-path="url(#clipPath2)"/>
      <path d="M222 258.9951 L217 270.9951 L222 267.9951 L227 270.9951 Z" clip-path="url(#clipPath2)" stroke="none"/>
      <path d="M222 290.9807 L227 278.9807 L222 281.9807 L217 278.9807 Z" clip-path="url(#clipPath2)" stroke="none"/>
      <path fill="none" d="M174.033 239 L77 239 L77 282.9873" clip-path="url(#clipPath2)"/>
      <path d="M182.033 239 L170.033 234 L173.033 239 L170.033 244 Z" clip-path="url(#clipPath2)" stroke="none"/>
      <path d="M77 290.9873 L82 278.9873 L77 281.9873 L72 278.9873 Z" clip-path="url(#clipPath2)" stroke="none"/>
      <path fill="none" d="M376.9022 328.9541 L377 407 L129.1284 407" clip-path="url(#clipPath2)"/>
      <path d="M121.1284 407 L133.1284 412 L130.1284 407 L133.1284 402 Z" clip-path="url(#clipPath2)" stroke="none"/>
      <path fill="none" d="M268 332.9521 L268 375 L97 375 L97 378.9853" clip-path="url(#clipPath2)"/>
      <path d="M268 324.9521 L263 336.9521 L268 333.9521 L273 336.9521 Z" clip-path="url(#clipPath2)" stroke="none"/>
      <path d="M97 386.9853 L102 374.9853 L97 377.9853 L92 374.9853 Z" clip-path="url(#clipPath2)" stroke="none"/>
      <path fill="none" d="M77 379.0459 L77 335.0252" clip-path="url(#clipPath2)"/>
      <path d="M77 387.0459 L82 375.0459 L77 378.0459 L72 375.0459 Z" clip-path="url(#clipPath2)" stroke="none"/>
      <path d="M77 327.0252 L72 339.0252 L77 336.0252 L82 339.0252 Z" clip-path="url(#clipPath2)" stroke="none"/>
      <path fill="none" d="M77 386.9775 L77 349 L222 349 L222 335.0078" clip-path="url(#clipPath2)"/>
      <path d="M222 327.0078 L217 339.0078 L222 336.0078 L227 339.0078 Z" clip-path="url(#clipPath2)" stroke="none"/>
      <path fill="none" d="M32.8481 407 L11.6182 407 L11.6182 239 L11.6182 229.72 L173.992 229.72" clip-path="url(#clipPath2)"/>
      <path d="M181.992 229.72 L169.992 224.72 L172.992 229.72 L169.992 234.72 Z" clip-path="url(#clipPath2)" stroke="none"/>
      <path fill="none" d="M376.8917 328.9746 L377 477 L129.1505 477" clip-path="url(#clipPath2)"/>
      <path d="M121.1505 477 L133.1505 482 L130.1505 477 L133.1505 472 Z" clip-path="url(#clipPath2)" stroke="none"/>
      <path fill="none" d="M268.2525 324.9237 L268.2525 444.6 L97.1282 444.6 L97.1282 448.981" clip-path="url(#clipPath2)"/>
      <path d="M97.1282 456.981 L102.1282 444.981 L97.1282 447.981 L92.1282 444.981 Z" clip-path="url(#clipPath2)" stroke="none"/>
      <path fill="none" d="M36.9785 477 L11.1382 477 L11.1382 229.72 L174.0002 229.72" clip-path="url(#clipPath2)"/>
      <path d="M182.0002 229.72 L170.0002 224.72 L173.0002 229.72 L170.0002 234.72 Z" clip-path="url(#clipPath2)" stroke="none"/>
      <path fill="none" d="M376.8884 328.9851 L377 527 L377 547 L129.1505 547" clip-path="url(#clipPath2)"/>
      <path d="M121.1505 547 L133.1505 552 L130.1505 547 L133.1505 542 Z" clip-path="url(#clipPath2)" stroke="none"/>
      <path fill="none" d="M267.8482 324.9343 L267.8482 515.2147 L96.3682 515.2147 L96.3682 519.0349" clip-path="url(#clipPath2)"/>
      <path d="M96.3682 527.0349 L101.3682 515.0349 L96.3682 518.0349 L91.3682 515.0349 Z" clip-path="url(#clipPath2)" stroke="none"/>
      <path fill="none" d="M37.0136 547 L10.2182 547 L10.2182 230.08 L173.9933 230.08" clip-path="url(#clipPath2)"/>
      <path d="M181.9933 230.08 L169.9933 225.08 L172.9933 230.08 L169.9933 235.08 Z" clip-path="url(#clipPath2)" stroke="none"/>
      <path fill="none" d="M77 427.0187 L77 439.08 L429.2182 439.08 L429.2182 379 L439.0211 379" clip-path="url(#clipPath2)"/>
      <path d="M447.0211 379 L435.0211 374 L438.0211 379 L435.0211 384 Z" clip-path="url(#clipPath2)" stroke="none"/>
      <path fill="none" d="M77.6943 497.0044 L77 507.08 L431.2182 507.08 L431.2182 449 L438.9998 448.5871" clip-path="url(#clipPath2)"/>
      <path d="M446.9886 448.1632 L434.7405 443.806 L438.0012 448.64 L435.2704 453.792 Z" clip-path="url(#clipPath2)" stroke="none"/>
      <path fill="none" d="M77 574.9789 L77 581.08 L398.2182 581.08 L398.2182 456.12 L438.977 456.12" clip-path="url(#clipPath2)"/>
      <path d="M77 566.9789 L72 578.9789 L77 575.9789 L82 578.9789 Z" clip-path="url(#clipPath2)" stroke="none"/>
      <path d="M446.977 456.12 L434.977 451.12 L437.977 456.12 L434.977 461.12 Z" clip-path="url(#clipPath2)" stroke="none"/>
      <path fill="none" d="M376.8892 328.9795 L377 513.08 L439.0122 513.08" clip-path="url(#clipPath2)"/>
      <path d="M447.0122 513.08 L435.0122 508.08 L438.0122 513.08 L435.0122 518.08 Z" clip-path="url(#clipPath2)" stroke="none"/>
      <path fill="none" d="M123.3694 325.0751 L123.3694 362.08 L412.2182 362.08 L412.2182 513.08 L438.9789 513.08" clip-path="url(#clipPath2)"/>
      <path d="M446.9789 513.08 L434.9789 508.08 L437.9789 513.08 L434.9789 518.08 Z" clip-path="url(#clipPath2)" stroke="none"/>
      <path fill="none" d="M526.9896 513.08 L546.2182 513.08 L546.2182 449 L534.9797 448.4382" clip-path="url(#clipPath2)"/>
      <path d="M526.9896 448.0389 L538.7251 453.6317 L535.9784 448.4882 L539.2242 443.6441 Z" clip-path="url(#clipPath2)" stroke="none"/>
      <path fill="none" d="M526.9896 513.08 L546.2182 513.08 L546.2182 379 L534.9896 379" clip-path="url(#clipPath2)"/>
      <path d="M526.9896 379 L538.9896 384 L535.9896 379 L538.9896 374 Z" clip-path="url(#clipPath2)" stroke="none"/>
      <path fill="none" d="M34.9682 292.5218 L34.9682 202.0469" clip-path="url(#clipPath2)"/>
      <path d="M34.9682 194.0469 L29.9682 206.0469 L34.9682 203.0469 L39.9682 206.0469 Z" clip-path="url(#clipPath2)" stroke="none"/>
      <path fill="none" d="M167.0542 294.4959 L167.0542 271.83 L118.9682 271.83 L87.9682 271.83 L87.9682 202.103" clip-path="url(#clipPath2)"/>
      <path d="M87.9682 194.103 L82.9682 206.103 L87.9682 203.103 L92.9682 206.103 Z" clip-path="url(#clipPath2)" stroke="none"/>
      <path fill="none" d="M394.9682 288.9775 L394.9682 212.83 L87.9682 212.83 L87.9682 202.0663" clip-path="url(#clipPath2)"/>
      <path d="M87.9682 194.0663 L82.9682 206.0663 L87.9682 203.0663 L92.9682 206.0663 Z" clip-path="url(#clipPath2)" stroke="none"/>
      <path fill="none" d="M57 202.1033 L57 228.83 L173.9694 228.83" clip-path="url(#clipPath2)"/>
      <path d="M57 194.1033 L52 206.1033 L57 203.1033 L62 206.1033 Z" clip-path="url(#clipPath2)" stroke="none"/>
      <path d="M181.9694 228.83 L169.9694 223.83 L172.9694 228.83 L169.9694 233.83 Z" clip-path="url(#clipPath2)" stroke="none"/>
      <path fill="none" d="M97.0013 174.08 L138.8408 174.08 L138.8408 145.0259 L487 145.0259 L487 350.9785" clip-path="url(#clipPath2)"/>
      <path d="M487 358.9785 L492 346.9785 L487 349.9785 L482 346.9785 Z" clip-path="url(#clipPath2)" stroke="none"/>
      <path fill="none" d="M222 202.0822 L222 211.0414" clip-path="url(#clipPath2)"/>
      <path d="M222 194.0822 L217 206.0822 L222 203.0822 L227 206.0822 Z" clip-path="url(#clipPath2)" stroke="none"/>
      <path d="M222 219.0414 L227 207.0414 L222 210.0414 L217 207.0414 Z" clip-path="url(#clipPath2)" stroke="none"/>
      <path fill="none" d="M270.0204 227.83 L353.9682 227.83 L377 227.83 L377 202.0605" clip-path="url(#clipPath2)"/>
      <path d="M262.0204 227.83 L274.0204 232.83 L271.0204 227.83 L274.0204 222.83 Z" clip-path="url(#clipPath2)" stroke="none"/>
      <path d="M377 194.0605 L372 206.0605 L377 203.0605 L382 206.0605 Z" clip-path="url(#clipPath2)" stroke="none"/>
    </g>
  </g>
</svg>
